# Blender 4.2.0
# www.blender.org
mtllib Enemy2.mtl
o ICO球
v 0.000000 -1.731879 0.000000
v 0.723607 -0.447220 0.525725
v -0.276388 -0.447220 0.850649
v -1.967085 -0.774523 0.000000
v -0.276388 -0.447220 -0.850649
v 0.723607 -0.447220 -0.525725
v 0.276388 0.447220 0.850649
v -0.723607 0.447220 0.525725
v -0.723607 0.447220 -0.525725
v 0.276388 0.447220 -0.850649
v 1.967085 0.774523 0.000000
v 0.000000 1.731879 0.000000
v -0.162456 -0.850654 0.499995
v 0.425323 -0.850654 0.309011
v 0.262869 -0.525738 0.809012
v 1.870805 -0.910511 0.000000
v 0.425323 -0.850654 -0.309011
v -0.525730 -0.850652 0.000000
v -0.688189 -0.525736 0.499997
v -0.162456 -0.850654 -0.499995
v -0.688189 -0.525736 -0.499997
v 0.262869 -0.525738 -0.809012
v 0.951058 0.000000 0.309013
v 0.951058 0.000000 -0.309013
v 0.000000 -0.000000 2.199270
v 0.587786 0.000000 0.809017
v -0.951058 0.000000 0.309013
v -0.587786 0.000000 0.809017
v -0.587786 0.000000 -0.809017
v -0.951058 0.000000 -0.309013
v 0.587786 0.000000 -0.809017
v 0.000000 -0.000000 -2.199270
v 0.688189 0.525736 0.499997
v -0.262869 0.525738 0.809012
v -1.870805 0.910511 0.000000
v -0.262869 0.525738 -0.809012
v 0.688189 0.525736 -0.499997
v 0.162456 0.850654 0.499995
v 0.525730 0.850652 0.000000
v -0.425323 0.850654 0.309011
v -0.425323 0.850654 -0.309011
v 0.162456 0.850654 -0.499995
vn 0.2783 -0.4347 0.8565
vn 0.1523 -0.5527 0.8193
vn -0.7286 -0.4347 0.5294
vn -0.7286 -0.4347 -0.5294
vn 0.2783 -0.4347 -0.8565
vn 0.4690 0.1804 0.8646
vn -0.1106 -0.9364 0.3332
vn -0.3840 0.1396 0.9127
vn -0.5746 -0.3304 -0.7488
vn 0.5346 -0.3304 -0.7779
vn 0.8026 -0.1256 0.5831
vn -0.7880 -0.5177 0.3332
vn -0.6062 0.7953 -0.0000
vn -0.7880 -0.5177 -0.3332
vn 0.8026 -0.1256 -0.5831
vn 0.4089 0.6617 0.6284
vn -0.4713 0.6617 0.5831
vn -0.1523 0.5527 -0.8193
vn 0.0385 0.6617 -0.7488
vn 0.0446 0.8442 -0.5341
vn 0.7286 0.4347 -0.5294
vn 0.4911 0.7947 -0.3568
vn 0.4089 0.6617 -0.6284
vn -0.2783 0.4347 -0.8565
vn -0.1876 0.7947 -0.5773
vn -0.4713 0.6617 -0.5831
vn -0.9006 0.4347 -0.0000
vn 0.0414 0.9991 -0.0000
vn -0.1523 0.5527 0.8193
vn -0.2783 0.4347 0.8565
vn -0.1876 0.7947 0.5773
vn 0.0385 0.6617 0.7488
vn 0.7286 0.4347 0.5294
vn 0.4911 0.7947 0.3568
vn 0.0446 0.8442 0.5341
vn 0.3840 -0.1396 -0.9127
vn 0.7947 0.1876 -0.5773
vn 0.5746 0.3304 -0.7488
vn 0.1106 0.9364 -0.3332
vn -0.8005 0.4947 -0.3384
vn -0.5346 0.3304 -0.7779
vn -0.4690 -0.1804 -0.8646
vn -0.7035 -0.7107 -0.0000
vn -0.4690 -0.1804 0.8646
vn -0.5346 0.3304 0.7779
vn -0.8005 0.4947 0.3384
vn 0.1106 0.9364 0.3332
vn 0.5746 0.3304 0.7488
vn 0.7947 0.1876 0.5773
vn 0.3840 -0.1396 0.9127
vn 0.7880 0.5177 -0.3332
vn 0.8005 -0.4947 -0.3384
vn -0.1106 -0.9364 -0.3332
vn -0.8026 0.1256 -0.5831
vn -0.7947 -0.1876 -0.5773
vn -0.3840 0.1396 -0.9127
vn -0.8026 0.1256 0.5831
vn -0.7947 -0.1876 0.5773
vn -0.5746 -0.3304 0.7488
vn 0.7880 0.5177 0.3332
vn 0.8005 -0.4947 0.3384
vn 0.5346 -0.3304 0.7779
vn 0.6062 -0.7953 -0.0000
vn 0.7035 0.7107 -0.0000
vn 0.4690 0.1804 -0.8646
vn 0.4713 -0.6617 -0.5831
vn 0.1876 -0.7947 -0.5773
vn -0.0385 -0.6617 -0.7488
vn -0.4089 -0.6617 -0.6284
vn -0.4911 -0.7947 -0.3568
vn -0.0446 -0.8442 -0.5341
vn -0.0446 -0.8442 0.5341
vn -0.4911 -0.7947 0.3568
vn -0.4089 -0.6617 0.6284
vn 0.1523 -0.5527 -0.8193
vn -0.0414 -0.9991 -0.0000
vn 0.9006 -0.4347 -0.0000
vn -0.0385 -0.6617 0.7488
vn 0.1876 -0.7947 0.5773
vn 0.4713 -0.6617 0.5831
vt 0.770097 0.528008
vt 0.727932 0.394491
vt 0.812263 0.394491
vt 0.418142 0.599893
vt 0.485801 0.568528
vt 0.485801 0.770387
vt 0.705278 0.724991
vt 0.663113 0.591473
vt 0.747445 0.591473
vt 0.768133 0.133517
vt 0.725966 -0.000000
vt 0.810297 -0.000000
vt 0.827861 0.731490
vt 0.747445 0.616869
vt 0.827861 0.591473
vt 0.155154 0.578359
vt 0.155154 0.761788
vt 0.082546 0.595378
vt 0.653158 0.394491
vt 0.578782 0.389045
vt 0.653158 0.196982
vt 0.486301 0.178458
vt 0.419873 0.000000
vt 0.504206 0.000000
vt 0.897418 0.750381
vt 0.827861 0.723487
vt 0.897418 0.675804
vt 0.573763 0.933282
vt 0.504206 0.906389
vt 0.573763 0.858705
vt 0.061511 0.897439
vt 0.000000 0.939604
vt 0.000000 0.855272
vt 0.504206 0.196982
vt 0.518634 0.000000
vt 0.578782 0.196982
vt 0.208622 0.573332
vt 0.166457 0.399005
vt 0.250788 0.399005
vt 0.578782 0.393964
vt 0.504206 0.393964
vt 0.564353 0.196982
vt 0.152104 0.920696
vt 0.082546 0.893802
vt 0.152104 0.846120
vt 0.817002 0.946082
vt 0.747445 0.919189
vt 0.817002 0.871507
vt 0.950882 0.867122
vt 0.889372 0.909287
vt 0.889372 0.824956
vt 0.000000 0.739575
vt 0.067659 0.569080
vt 0.067659 0.770940
vt 0.957923 0.346132
vt 0.888366 0.319239
vt 0.957923 0.271557
vt 0.334674 0.201598
vt 0.334674 0.392018
vt 0.251206 0.379985
vt 0.663113 0.724991
vt 0.578782 0.724991
vt 0.620947 0.591473
vt 0.324239 0.857563
vt 0.251206 0.815398
vt 0.324239 0.773232
vt 0.954853 0.442173
vt 0.885295 0.469066
vt 0.885295 0.394491
vt 0.659198 0.865008
vt 0.578782 0.839612
vt 0.659198 0.724991
vt 0.885295 0.394491
vt 0.885295 0.478822
vt 0.812263 0.436656
vt 0.950882 0.993618
vt 0.889372 0.951453
vt 0.950882 0.909287
vt 0.827860 0.871507
vt 0.747445 0.846112
vt 0.827860 0.731490
vt 0.082546 0.399005
vt 0.124711 0.201598
vt 0.166876 0.399005
vt 0.251206 0.571372
vt 0.318865 0.741867
vt 0.251206 0.773232
vt 0.747444 0.858508
vt 0.663113 0.858508
vt 0.705279 0.724991
vt 0.885295 0.520988
vt 0.812263 0.563154
vt 0.812263 0.478822
vt 0.946806 0.553398
vt 0.885295 0.511232
vt 0.946806 0.469066
vt 0.807950 0.336999
vt 0.727534 0.311603
vt 0.807950 0.196982
vt 0.417084 0.773232
vt 0.417084 0.857564
vt 0.344051 0.815398
vt 0.335542 0.188472
vt 0.362713 -0.000000
vt 0.419873 0.188472
vt 0.502475 0.568528
vt 0.418142 0.568528
vt 0.484570 0.390070
vt 0.239491 0.841093
vt 0.166457 0.798927
vt 0.239491 0.756761
vt 0.889372 0.834713
vt 0.827861 0.792546
vt 0.889372 0.750381
vt 0.638932 0.591473
vt 0.578782 0.394491
vt 0.653357 0.394491
vt 0.209042 0.201598
vt 0.166878 -0.000000
vt 0.251210 -0.000000
vt 0.344052 0.932140
vt 0.344052 0.857564
vt 0.413609 0.884456
vt 0.504206 0.757355
vt 0.576814 0.590945
vt 0.576814 0.774374
vt 0.082025 0.387520
vt -0.000000 0.367935
vt 0.082025 0.205960
vt 0.725966 0.166410
vt 0.653358 0.183429
vt 0.653358 -0.000000
vt 0.648339 0.939584
vt 0.578782 0.891900
vt 0.648339 0.865008
vt 0.335542 -0.000000
vt 0.293379 0.201598
vt 0.251210 -0.000000
vt 0.653158 0.394491
vt 0.653158 0.196982
vt 0.727534 0.202428
vt 0.166457 0.888775
vt 0.236016 0.841093
vt 0.236016 0.915669
vt 0.491176 0.854720
vt 0.418142 0.812554
vt 0.491176 0.770387
vt 0.251206 0.571372
vt 0.251206 0.392018
vt 0.335117 0.562953
vt 0.578782 0.393964
vt 0.518634 0.590945
vt 0.504206 0.393964
vt 0.166878 0.201598
vt 0.082546 0.201598
vt 0.124715 -0.000000
vt 0.727932 0.591473
vt 0.653357 0.591473
vt 0.667782 0.394491
vt 0.320764 0.932139
vt 0.251206 0.884457
vt 0.320764 0.857563
vt 0.073034 0.770940
vt 0.073034 0.855272
vt -0.000000 0.813106
vt 0.166457 0.407424
vt 0.082546 0.578359
vt 0.082546 0.399005
vt 0.487700 0.929296
vt 0.418142 0.881614
vt 0.487700 0.854720
vt 0.155580 0.761788
vt 0.155580 0.846120
vt 0.082546 0.803954
vt 0.889371 0.919045
vt 0.827861 0.876880
vt 0.889371 0.834713
vt 0.638930 0.196982
vt 0.578782 0.000000
vt 0.653358 0.000000
vt 0.082546 0.205960
vt -0.000000 0.017264
vt 0.082546 0.000000
vt 0.663113 0.933083
vt 0.663113 0.858508
vt 0.732672 0.885401
vt 0.417084 0.571372
vt 0.335117 0.551546
vt 0.417084 0.392018
vt 0.082025 0.387520
vt 0.082025 0.569080
vt 0.000000 0.407105
vt 0.166457 0.756761
vt 0.166457 0.573332
vt 0.239065 0.590351
vt 0.900893 0.675804
vt 0.900893 0.591473
vt 0.962403 0.633639
vt 0.883330 0.126497
vt 0.810297 0.168662
vt 0.810297 0.084331
vt 0.889371 0.824956
vt 0.889371 0.750381
vt 0.958929 0.777274
vt 0.952888 0.026893
vt 0.883331 0.074576
vt 0.883331 0.000000
vt 0.504206 0.858705
vt 0.504206 0.774374
vt 0.577239 0.816539
vt 0.502473 0.201598
vt 0.445313 0.390070
vt 0.418142 0.201598
vt 0.334674 0.213631
vt 0.418142 0.201598
vt 0.418142 0.392018
vt 0.883331 -0.000000
vt 0.883331 0.084331
vt 0.810297 0.042165
vt 0.883331 0.101469
vt 0.952888 0.074576
vt 0.952888 0.149151
vt 0.349426 0.773232
vt 0.349426 0.571372
vt 0.417084 0.602737
vt 0.209041 0.399005
vt 0.166876 0.201598
vt 0.251206 0.201598
vt 0.888366 0.196982
vt 0.888366 0.336999
vt 0.807950 0.222377
vt 0.957923 0.271557
vt 0.888366 0.223875
vt 0.957923 0.196982
vt 0.900893 0.675804
vt 0.827861 0.633639
vt 0.900893 0.591473
vt 0.227967 1.000000
vt 0.166457 0.957834
vt 0.227967 0.915669
s 0
usemtl マテリアル
f 1/1/1 14/2/1 13/3/1
f 2/4/2 14/5/2 16/6/2
f 1/7/3 13/8/3 18/9/3
f 1/10/4 18/11/4 20/12/4
f 1/13/5 20/14/5 17/15/5
f 2/16/6 16/17/6 23/18/6
f 3/19/7 15/20/7 25/21/7
f 4/22/8 19/23/8 27/24/8
f 5/25/9 21/26/9 29/27/9
f 6/28/10 22/29/10 31/30/10
f 2/31/11 23/32/11 26/33/11
f 3/34/12 25/35/12 28/36/12
f 4/37/13 27/38/13 30/39/13
f 5/40/14 29/41/14 32/42/14
f 6/43/15 31/44/15 24/45/15
f 7/46/16 33/47/16 38/48/16
f 8/49/17 34/50/17 40/51/17
f 9/52/18 35/53/18 41/54/18
f 10/55/19 36/56/19 42/57/19
f 11/58/20 37/59/20 39/60/20
f 39/61/21 42/62/21 12/63/21
f 39/64/22 37/65/22 42/66/22
f 37/67/23 10/68/23 42/69/23
f 42/70/24 41/71/24 12/72/24
f 42/73/25 36/74/25 41/75/25
f 36/76/26 9/77/26 41/78/26
f 41/79/27 40/80/27 12/81/27
f 41/82/28 35/83/28 40/84/28
f 35/85/29 8/86/29 40/87/29
f 40/88/30 38/89/30 12/90/30
f 40/91/31 34/92/31 38/93/31
f 34/94/32 7/95/32 38/96/32
f 38/97/33 39/98/33 12/99/33
f 38/100/34 33/101/34 39/102/34
f 33/103/35 11/104/35 39/105/35
f 24/106/36 37/107/36 11/108/36
f 24/109/37 31/110/37 37/111/37
f 31/112/38 10/113/38 37/114/38
f 32/115/39 36/116/39 10/117/39
f 32/118/40 29/119/40 36/120/40
f 29/121/41 9/122/41 36/123/41
f 30/124/42 35/125/42 9/126/42
f 30/127/43 27/128/43 35/129/43
f 27/130/44 8/131/44 35/132/44
f 28/133/45 34/134/45 8/135/45
f 28/136/46 25/137/46 34/138/46
f 25/139/47 7/140/47 34/141/47
f 26/142/48 33/143/48 7/144/48
f 26/145/49 23/146/49 33/147/49
f 23/148/50 11/149/50 33/150/50
f 31/151/51 32/152/51 10/153/51
f 31/154/52 22/155/52 32/156/52
f 22/157/53 5/158/53 32/159/53
f 29/160/54 30/161/54 9/162/54
f 29/163/55 21/164/55 30/165/55
f 21/166/56 4/167/56 30/168/56
f 27/169/57 28/170/57 8/171/57
f 27/172/58 19/173/58 28/174/58
f 19/175/59 3/176/59 28/177/59
f 25/178/60 26/179/60 7/180/60
f 25/181/61 15/182/61 26/183/61
f 15/184/62 2/185/62 26/186/62
f 23/187/63 24/188/63 11/189/63
f 23/190/64 16/191/64 24/192/64
f 16/193/65 6/194/65 24/195/65
f 17/196/66 22/197/66 6/198/66
f 17/199/67 20/200/67 22/201/67
f 20/202/68 5/203/68 22/204/68
f 20/205/69 21/206/69 5/207/69
f 20/208/70 18/209/70 21/210/70
f 18/211/71 4/212/71 21/213/71
f 18/214/72 19/215/72 4/216/72
f 18/217/73 13/218/73 19/219/73
f 13/220/74 3/221/74 19/222/74
f 16/223/75 17/224/75 6/225/75
f 16/226/76 14/227/76 17/228/76
f 14/229/77 1/230/77 17/231/77
f 13/232/78 15/233/78 3/234/78
f 13/235/79 14/236/79 15/237/79
f 14/238/80 2/239/80 15/240/80
