# Blender 3.6.0
# www.blender.org
mtllib Player_Attack.mtl
o 円錐
v -0.015060 0.000000 -1.000000
v -0.015060 -0.555570 -0.831470
v -0.015060 -0.923879 -0.382683
v -0.015060 -0.980785 0.195090
v -2.790956 0.009608 0.097545
v -0.015060 -0.707107 0.707107
v -0.015060 -0.195090 0.980785
v -0.015060 0.382684 0.923880
v -0.015060 0.831470 0.555570
v -0.015060 1.000000 0.000000
v -0.015060 0.707107 -0.707107
v 6.468066 -0.000000 0.000000
vn -0.3420 0.3596 -0.8682
vn -0.3547 -0.2714 -0.8947
vn -0.3468 -0.7250 -0.5950
vn -0.3317 -0.9388 -0.0925
vn -0.3144 -0.8372 0.4475
vn -0.3008 -0.4496 0.8411
vn -0.2956 0.0936 0.9507
vn -0.3008 0.6050 0.7372
vn -0.3144 0.9084 0.2756
vn -0.3245 0.8739 -0.3620
vn 0.1411 0.9146 -0.3789
vn 0.1460 0.9467 0.2872
vn 0.1460 0.6276 0.7647
vn 0.1460 0.0970 0.9845
vn 0.1460 -0.4663 0.8725
vn 0.1460 -0.8725 0.4663
vn 0.1460 -0.9845 -0.0970
vn 0.1411 0.3789 -0.9146
vn 0.1460 -0.7647 -0.6276
vn 0.1460 -0.2872 -0.9467
vt 0.812423 0.970884
vt 0.818025 0.689332
vt 0.953048 0.692941
vt 0.286208 0.979489
vt 0.023771 0.694978
vt 0.133964 0.687978
vt 0.256513 0.704362
vt 0.337115 0.707751
vt 0.390561 0.702685
vt 0.504920 0.699098
vt 0.575283 0.701051
vt 0.676833 0.703304
vt 0.594052 0.695032
vt 0.769939 0.702387
vt 0.810251 0.679944
vt 0.934247 0.012078
vt 0.884450 0.671867
vt 0.761719 0.678877
vt 0.282977 0.661874
vt 0.154217 0.007813
vt 0.347576 0.660035
vt 0.211688 0.656385
vt 0.155982 0.663149
vt 0.042969 0.667156
vt 0.580040 0.675546
vt 0.545030 0.023437
vt 0.670030 0.669801
vt 0.969403 0.683113
vt 0.518517 0.675916
vt 0.415936 0.682680
s 0
usemtl マテリアル
f 5/1/1 11/2/1 1/3/1
f 5/4/2 1/5/2 2/6/2
f 5/4/3 2/6/3 3/7/3
f 5/4/4 3/7/4 4/8/4
f 5/4/5 4/8/5 6/9/5
f 7/10/6 5/4/6 6/9/6
f 8/11/7 5/4/7 7/10/7
f 9/12/8 5/1/8 8/13/8
f 10/14/9 5/1/9 9/12/9
f 11/2/10 5/1/10 10/14/10
f 10/15/11 12/16/11 11/17/11
f 9/18/12 12/16/12 10/15/12
f 8/19/13 12/20/13 9/21/13
f 7/22/14 12/20/14 8/19/14
f 6/23/15 12/20/15 7/22/15
f 4/24/16 12/20/16 6/23/16
f 3/25/17 12/26/17 4/27/17
f 12/16/18 1/28/18 11/17/18
f 2/29/19 12/26/19 3/25/19
f 1/30/20 12/26/20 2/29/20
